<?xml version="1.0" standalone="no"?>
<!DOCTYPE svg PUBLIC "-//W3C//DTD SVG 20010904//EN"
 "http://www.w3.org/TR/2001/REC-SVG-20010904/DTD/svg10.dtd">
<svg version="1.0" xmlns="http://www.w3.org/2000/svg"
 width="264.000000pt" height="264.000000pt" viewBox="0 0 264.000000 264.000000"
 preserveAspectRatio="xMidYMid meet">
<metadata>
Created by potrace 1.11, written by Peter Selinger 2001-2013
</metadata>
<g transform="translate(0.000000,264.000000) scale(0.100000,-0.100000)"
fill="#000000" stroke="none">
<path d="M1575 2551 c-64 -22 -86 -46 -218 -244 -63 -95 -152 -221 -197 -281
-92 -122 -148 -216 -270 -451 -45 -88 -108 -198 -140 -245 -31 -47 -73 -116
-94 -155 -21 -38 -49 -82 -63 -96 -44 -47 -58 -141 -29 -197 15 -30 15 -31
-30 -98 -68 -102 -77 -129 -58 -170 9 -19 21 -37 26 -40 9 -6 77 62 78 77 0 4
6 9 13 12 26 10 6 -40 -29 -74 -36 -35 -43 -59 -21 -77 10 -9 19 -7 35 4 12 8
22 14 23 12 0 -2 2 -11 4 -22 2 -10 13 -28 24 -40 12 -12 21 -28 21 -35 0 -6
17 -19 37 -27 21 -8 52 -22 70 -30 17 -8 34 -14 38 -14 3 0 13 -7 21 -15 9 -8
33 -18 55 -21 l39 -7 -4 -50 c-3 -45 0 -55 24 -79 21 -21 37 -27 64 -26 20 1
39 5 41 9 3 4 14 5 25 2 11 -3 27 0 35 7 8 7 15 9 15 4 0 -5 7 2 16 14 8 12
13 26 10 31 -4 5 5 23 19 39 14 16 25 35 25 42 0 14 43 2 49 -14 9 -23 60 -66
79 -66 11 0 33 7 48 15 16 8 41 13 55 10 16 -4 30 0 38 9 9 11 24 14 50 10 58
-9 110 -24 116 -34 10 -16 25 -12 25 7 0 9 7 24 16 34 8 9 17 26 18 36 4 26
-33 93 -52 93 -13 0 -13 2 1 18 10 10 17 23 17 29 0 15 67 81 99 98 24 12 27
19 26 68 0 53 1 54 23 46 31 -12 38 10 16 53 -11 21 -19 65 -22 123 -4 76 0
109 26 215 17 69 33 149 37 178 4 28 12 52 18 53 64 3 90 8 102 20 13 12 12
18 -1 44 -21 42 -24 99 -7 169 8 33 17 73 19 88 2 15 20 59 39 96 20 38 37 75
39 83 9 49 20 91 38 139 26 71 32 233 11 304 -8 27 -16 57 -18 65 -14 75 -31
109 -68 144 -60 55 -130 97 -187 112 -68 18 -198 16 -255 -4z"/>
</g>
</svg>
